<?xml version="1.0" encoding="UTF-8"?>
<svg xmlns="http://www.w3.org/2000/svg" xmlns:xlink="http://www.w3.org/1999/xlink" width="px" height="200px" viewBox="0 0 529 200" version="1.1">
<g id="surface1">
<path style=" stroke:none;fill-rule:nonzero;fill:rgb(43.921569%,43.529412%,43.529412%);fill-opacity:1;" d="M 155.730469 184.769531 L 155.730469 199.007812 L 154.679688 199.007812 L 154.679688 185.882812 L 152.882812 185.882812 L 152.882812 184.828125 L 155.730469 184.828125 Z M 164.332031 185.324219 C 165.816406 185.324219 167.113281 185.945312 168.226562 187.246094 C 169.28125 188.542969 169.835938 190.09375 169.835938 191.886719 C 169.835938 193.683594 169.28125 195.230469 168.226562 196.53125 C 167.175781 197.832031 165.878906 198.453125 164.332031 198.453125 C 162.84375 198.453125 161.546875 197.832031 160.433594 196.53125 C 159.378906 195.230469 158.824219 193.683594 158.824219 191.886719 C 158.824219 190.09375 159.378906 188.542969 160.433594 187.246094 C 161.546875 186.007812 162.84375 185.324219 164.332031 185.324219 Z M 164.332031 199.503906 C 165.195312 199.503906 166.0625 199.320312 166.867188 198.886719 C 167.671875 198.515625 168.351562 197.957031 168.96875 197.277344 C 170.269531 195.789062 170.886719 193.992188 170.886719 191.886719 C 170.886719 189.785156 170.269531 187.988281 168.96875 186.5 C 167.671875 185.015625 166.125 184.273438 164.332031 184.273438 C 163.464844 184.273438 162.597656 184.457031 161.792969 184.890625 C 160.988281 185.261719 160.308594 185.820312 159.691406 186.5 C 158.390625 187.988281 157.773438 189.785156 157.773438 191.886719 C 157.773438 193.992188 158.390625 195.789062 159.691406 197.277344 C 160.988281 198.761719 162.535156 199.503906 164.332031 199.503906 Z M 179.054688 185.324219 C 180.539062 185.324219 181.839844 185.945312 182.953125 187.246094 C 184.003906 188.542969 184.5625 190.09375 184.5625 191.886719 C 184.5625 193.683594 184.003906 195.230469 182.953125 196.53125 C 181.902344 197.832031 180.601562 198.453125 179.054688 198.453125 C 177.570312 198.453125 176.269531 197.832031 175.15625 196.53125 C 174.105469 195.230469 173.550781 193.683594 173.550781 191.886719 C 173.550781 190.09375 174.105469 188.542969 175.15625 187.246094 C 176.210938 186.007812 177.507812 185.324219 179.054688 185.324219 Z M 179.054688 199.503906 C 179.921875 199.503906 180.789062 199.320312 181.59375 198.886719 C 182.398438 198.515625 183.078125 197.957031 183.695312 197.277344 C 184.996094 195.789062 185.613281 193.992188 185.613281 191.886719 C 185.613281 189.785156 184.996094 187.988281 183.695312 186.5 C 182.398438 185.015625 180.851562 184.273438 179.054688 184.273438 C 178.191406 184.273438 177.324219 184.457031 176.519531 184.890625 C 175.714844 185.261719 175.035156 185.820312 174.414062 186.5 C 173.117188 187.988281 172.496094 189.785156 172.496094 191.886719 C 172.496094 193.992188 173.117188 195.789062 174.414062 197.277344 C 175.714844 198.761719 177.199219 199.503906 179.054688 199.503906 Z M 195.390625 186.996094 L 187.347656 198.515625 L 187.964844 198.949219 L 196.007812 187.429688 Z M 189.078125 188.296875 C 188.523438 188.296875 188.027344 188.484375 187.65625 188.917969 C 187.285156 189.289062 187.035156 189.785156 187.035156 190.339844 C 187.035156 190.898438 187.222656 191.394531 187.65625 191.765625 C 188.027344 192.136719 188.523438 192.382812 189.078125 192.382812 C 189.636719 192.382812 190.128906 192.199219 190.5 191.765625 C 190.875 191.394531 191.121094 190.898438 191.121094 190.339844 C 191.121094 189.785156 190.933594 189.289062 190.5 188.917969 C 190.128906 188.484375 189.636719 188.296875 189.078125 188.296875 Z M 189.945312 189.472656 C 190.191406 189.722656 190.316406 190.03125 190.316406 190.402344 C 190.316406 190.773438 190.191406 191.023438 189.945312 191.269531 C 189.699219 191.515625 189.386719 191.640625 189.078125 191.640625 C 188.707031 191.640625 188.460938 191.515625 188.210938 191.269531 C 187.964844 191.023438 187.839844 190.710938 187.839844 190.402344 C 187.839844 190.03125 187.964844 189.722656 188.210938 189.472656 C 188.460938 189.226562 188.769531 189.101562 189.078125 189.101562 C 189.386719 189.101562 189.699219 189.226562 189.945312 189.472656 Z M 194.339844 193.558594 C 193.78125 193.558594 193.285156 193.746094 192.914062 194.179688 C 192.542969 194.550781 192.296875 195.046875 192.296875 195.605469 C 192.296875 196.160156 192.480469 196.65625 192.914062 197.027344 C 193.285156 197.398438 193.78125 197.648438 194.339844 197.648438 C 194.894531 197.648438 195.390625 197.460938 195.761719 197.027344 C 196.132812 196.65625 196.378906 196.160156 196.378906 195.605469 C 196.378906 195.046875 196.195312 194.550781 195.761719 194.179688 C 195.390625 193.808594 194.894531 193.558594 194.339844 193.558594 Z M 195.203125 194.738281 C 195.453125 194.984375 195.574219 195.292969 195.574219 195.605469 C 195.574219 195.976562 195.453125 196.222656 195.203125 196.46875 C 194.957031 196.71875 194.648438 196.84375 194.339844 196.84375 C 193.964844 196.84375 193.65625 196.71875 193.472656 196.46875 C 193.222656 196.222656 193.101562 195.914062 193.101562 195.605469 C 193.101562 195.230469 193.222656 194.921875 193.472656 194.738281 C 193.71875 194.488281 194.027344 194.367188 194.339844 194.367188 C 194.648438 194.367188 194.957031 194.488281 195.203125 194.738281 Z M 204.855469 180.804688 L 205.96875 180.804688 L 205.96875 198.949219 L 204.855469 198.949219 Z M 222.117188 191.207031 C 221.933594 189.535156 221.25 188.171875 220.015625 187.058594 C 218.777344 185.945312 217.292969 185.386719 215.621094 185.386719 C 213.949219 185.386719 212.464844 185.945312 211.230469 187.058594 C 209.992188 188.171875 209.3125 189.535156 209.125 191.207031 Z M 215.621094 184.273438 C 217.601562 184.273438 219.332031 184.953125 220.757812 186.316406 C 222.179688 187.679688 223.046875 189.289062 223.171875 191.207031 C 223.171875 191.457031 223.230469 191.703125 223.230469 191.886719 L 223.230469 192.261719 L 209.125 192.261719 C 209.25 193.992188 209.867188 195.417969 211.167969 196.65625 C 212.40625 197.832031 213.949219 198.453125 215.683594 198.453125 C 216.984375 198.453125 218.21875 198.082031 219.332031 197.335938 C 220.386719 196.59375 221.191406 195.664062 221.683594 194.488281 L 222.859375 194.488281 C 222.304688 195.976562 221.375 197.152344 220.136719 198.082031 C 218.839844 199.007812 217.355469 199.503906 215.746094 199.503906 C 213.640625 199.503906 211.847656 198.761719 210.363281 197.277344 C 208.878906 195.789062 208.136719 193.992188 208.136719 191.886719 C 208.136719 189.785156 208.878906 187.988281 210.363281 186.5 C 211.722656 185.015625 213.519531 184.273438 215.621094 184.273438 Z M 239.007812 184.769531 L 231.273438 199.441406 L 223.542969 184.769531 L 224.777344 184.769531 L 231.273438 197.089844 L 237.773438 184.769531 Z M 253.488281 191.886719 C 253.488281 190.09375 252.867188 188.542969 251.570312 187.246094 C 250.269531 185.945312 248.722656 185.324219 246.929688 185.324219 C 245.132812 185.324219 243.585938 185.945312 242.289062 187.246094 C 240.988281 188.542969 240.371094 190.09375 240.371094 191.886719 C 240.371094 193.683594 240.988281 195.230469 242.289062 196.53125 C 243.585938 197.832031 245.132812 198.453125 246.929688 198.453125 C 248.722656 198.453125 250.269531 197.832031 251.570312 196.53125 C 252.804688 195.230469 253.488281 193.683594 253.488281 191.886719 Z M 253.488281 195.789062 C 252.804688 196.902344 251.878906 197.832031 250.765625 198.515625 C 249.589844 199.195312 248.289062 199.503906 246.929688 199.503906 C 244.824219 199.503906 243.03125 198.761719 241.546875 197.277344 C 240.0625 195.789062 239.320312 193.992188 239.320312 191.886719 C 239.320312 189.785156 240.0625 187.988281 241.546875 186.5 C 243.03125 185.015625 244.824219 184.273438 246.929688 184.273438 C 249.03125 184.273438 250.828125 185.015625 252.3125 186.5 C 253.796875 187.988281 254.539062 189.785156 254.539062 191.886719 L 254.539062 198.949219 L 253.425781 198.949219 L 253.425781 195.789062 Z M 257.011719 184.769531 L 258.128906 184.769531 L 258.128906 198.949219 L 257.011719 198.949219 Z M 260.601562 199.007812 L 260.601562 190.773438 C 260.601562 188.976562 261.222656 187.429688 262.519531 186.128906 C 263.820312 184.828125 265.367188 184.210938 267.160156 184.210938 C 268.953125 184.210938 270.5 184.828125 271.800781 186.128906 C 273.101562 187.429688 273.71875 188.976562 273.71875 190.773438 L 273.71875 199.007812 L 272.667969 199.007812 L 272.667969 190.773438 C 272.667969 189.289062 272.109375 187.988281 271.058594 186.933594 C 270.007812 185.882812 268.707031 185.324219 267.222656 185.324219 C 265.738281 185.324219 264.4375 185.882812 263.386719 186.933594 C 262.335938 187.988281 261.777344 189.289062 261.777344 190.773438 L 261.777344 199.007812 Z M 276.996094 198.265625 C 276.996094 198.699219 276.8125 199.132812 276.441406 199.566406 C 276.132812 199.9375 275.824219 200.1875 275.574219 200.246094 L 275.511719 200.0625 C 275.636719 200 275.824219 199.875 276.070312 199.691406 C 276.316406 199.441406 276.503906 199.195312 276.566406 198.949219 C 276.503906 199.007812 276.378906 199.007812 276.195312 199.007812 C 275.945312 199.007812 275.761719 198.949219 275.636719 198.761719 C 275.511719 198.574219 275.390625 198.390625 275.390625 198.203125 C 275.390625 198.019531 275.453125 197.769531 275.636719 197.648438 C 275.824219 197.460938 276.007812 197.398438 276.195312 197.398438 C 276.441406 197.398438 276.6875 197.523438 276.875 197.769531 C 276.9375 197.957031 276.996094 198.140625 276.996094 198.265625 Z M 284.917969 184.769531 L 284.917969 199.007812 L 283.804688 199.007812 L 283.804688 185.882812 L 282.007812 185.882812 L 282.007812 184.828125 L 284.917969 184.828125 Z M 293.519531 185.324219 C 295.003906 185.324219 296.300781 185.945312 297.414062 187.246094 C 298.46875 188.542969 299.023438 190.09375 299.023438 191.886719 C 299.023438 193.683594 298.46875 195.230469 297.414062 196.53125 C 296.363281 197.832031 295.0625 198.453125 293.519531 198.453125 C 292.03125 198.453125 290.734375 197.832031 289.621094 196.53125 C 288.566406 195.230469 288.011719 193.683594 288.011719 191.886719 C 288.011719 190.09375 288.566406 188.542969 289.621094 187.246094 C 290.734375 186.007812 292.03125 185.324219 293.519531 185.324219 Z M 293.519531 199.503906 C 294.382812 199.503906 295.25 199.320312 296.054688 198.886719 C 296.859375 198.515625 297.539062 197.957031 298.15625 197.277344 C 299.457031 195.789062 300.074219 193.992188 300.074219 191.886719 C 300.074219 189.785156 299.457031 187.988281 298.15625 186.5 C 296.859375 185.015625 295.3125 184.273438 293.519531 184.273438 C 292.652344 184.273438 291.785156 184.457031 290.980469 184.890625 C 290.175781 185.261719 289.496094 185.820312 288.878906 186.5 C 287.578125 187.988281 286.960938 189.785156 286.960938 191.886719 C 286.960938 193.992188 287.578125 195.789062 288.878906 197.277344 C 290.175781 198.761719 291.722656 199.503906 293.519531 199.503906 Z M 308.242188 185.324219 C 309.726562 185.324219 311.027344 185.945312 312.140625 187.246094 C 313.191406 188.542969 313.75 190.09375 313.75 191.886719 C 313.75 193.683594 313.191406 195.230469 312.140625 196.53125 C 311.089844 197.832031 309.789062 198.453125 308.242188 198.453125 C 306.757812 198.453125 305.457031 197.832031 304.34375 196.53125 C 303.292969 195.230469 302.738281 193.683594 302.738281 191.886719 C 302.738281 190.09375 303.292969 188.542969 304.34375 187.246094 C 305.457031 186.007812 306.757812 185.324219 308.242188 185.324219 Z M 308.242188 199.503906 C 309.109375 199.503906 309.976562 199.320312 310.78125 198.886719 C 311.585938 198.515625 312.265625 197.957031 312.882812 197.277344 C 314.183594 195.789062 314.800781 193.992188 314.800781 191.886719 C 314.800781 189.785156 314.183594 187.988281 312.882812 186.5 C 311.585938 185.015625 310.039062 184.273438 308.242188 184.273438 C 307.375 184.273438 306.511719 184.457031 305.707031 184.890625 C 304.902344 185.261719 304.222656 185.820312 303.601562 186.5 C 302.304688 187.988281 301.683594 189.785156 301.683594 191.886719 C 301.683594 193.992188 302.304688 195.789062 303.601562 197.277344 C 304.902344 198.761719 306.449219 199.503906 308.242188 199.503906 Z M 324.578125 186.996094 L 316.535156 198.515625 L 317.152344 198.949219 L 325.195312 187.429688 Z M 318.265625 188.296875 C 317.710938 188.296875 317.214844 188.484375 316.84375 188.917969 C 316.472656 189.289062 316.222656 189.785156 316.222656 190.339844 C 316.222656 190.898438 316.410156 191.394531 316.84375 191.765625 C 317.214844 192.136719 317.710938 192.382812 318.265625 192.382812 C 318.824219 192.382812 319.316406 192.199219 319.6875 191.765625 C 320.058594 191.394531 320.308594 190.898438 320.308594 190.339844 C 320.308594 189.785156 320.121094 189.289062 319.6875 188.917969 C 319.316406 188.484375 318.824219 188.296875 318.265625 188.296875 Z M 319.132812 189.472656 C 319.378906 189.722656 319.503906 190.03125 319.503906 190.402344 C 319.503906 190.773438 319.378906 191.023438 319.132812 191.269531 C 318.886719 191.515625 318.574219 191.640625 318.265625 191.640625 C 317.894531 191.640625 317.648438 191.515625 317.398438 191.269531 C 317.152344 191.023438 317.027344 190.710938 317.027344 190.402344 C 317.027344 190.03125 317.152344 189.722656 317.398438 189.472656 C 317.648438 189.226562 317.957031 189.101562 318.265625 189.101562 C 318.636719 189.101562 318.886719 189.226562 319.132812 189.472656 Z M 323.523438 193.558594 C 322.96875 193.558594 322.472656 193.746094 322.101562 194.179688 C 321.730469 194.550781 321.484375 195.046875 321.484375 195.605469 C 321.484375 196.160156 321.667969 196.65625 322.101562 197.027344 C 322.472656 197.398438 322.96875 197.648438 323.523438 197.648438 C 324.082031 197.648438 324.578125 197.460938 324.949219 197.027344 C 325.320312 196.65625 325.566406 196.160156 325.566406 195.605469 C 325.566406 195.046875 325.382812 194.550781 324.949219 194.179688 C 324.578125 193.808594 324.082031 193.558594 323.523438 193.558594 Z M 324.390625 194.738281 C 324.640625 194.984375 324.761719 195.292969 324.761719 195.605469 C 324.761719 195.976562 324.640625 196.222656 324.390625 196.46875 C 324.144531 196.71875 323.835938 196.84375 323.523438 196.84375 C 323.152344 196.84375 322.84375 196.71875 322.660156 196.46875 C 322.410156 196.222656 322.289062 195.914062 322.289062 195.605469 C 322.289062 195.230469 322.410156 194.921875 322.660156 194.738281 C 322.90625 194.488281 323.214844 194.367188 323.523438 194.367188 C 323.898438 194.367188 324.144531 194.488281 324.390625 194.738281 Z M 336.828125 199.503906 C 338.375 199.503906 339.550781 199.070312 340.417969 198.203125 C 341.160156 197.460938 341.589844 196.53125 341.589844 195.417969 C 341.589844 194.117188 341.035156 193.003906 339.984375 192.199219 C 339.550781 191.886719 338.992188 191.578125 338.375 191.269531 C 338.125 191.144531 337.816406 191.023438 337.507812 190.898438 L 337.074219 190.710938 L 336.640625 190.527344 C 335.40625 190.03125 334.539062 189.660156 334.105469 189.351562 C 333.488281 188.917969 333.175781 188.421875 333.175781 187.800781 C 333.175781 186.8125 333.671875 186.066406 334.660156 185.695312 C 334.972656 185.574219 335.34375 185.449219 335.714844 185.386719 C 335.835938 185.386719 335.960938 185.386719 336.148438 185.324219 L 336.394531 185.324219 C 337.445312 185.324219 338.375 185.449219 339.179688 185.695312 C 339.425781 185.757812 339.671875 185.882812 339.859375 185.945312 C 339.921875 186.007812 339.984375 186.007812 340.042969 186.007812 C 340.042969 186.007812 340.105469 186.007812 340.105469 186.007812 L 340.726562 185.140625 C 340.726562 185.140625 340.664062 185.140625 340.664062 185.140625 C 340.601562 185.078125 340.539062 185.078125 340.476562 185.015625 C 340.230469 184.890625 339.984375 184.769531 339.671875 184.707031 C 338.746094 184.394531 337.695312 184.210938 336.519531 184.210938 C 335.464844 184.210938 334.601562 184.457031 333.796875 184.953125 C 332.742188 185.574219 332.25 186.5 332.25 187.800781 C 332.25 188.730469 332.683594 189.535156 333.546875 190.15625 C 333.917969 190.402344 334.351562 190.648438 334.910156 190.898438 C 335.15625 191.023438 335.40625 191.082031 335.652344 191.207031 L 336.394531 191.515625 C 337.878906 192.074219 338.871094 192.570312 339.363281 192.941406 C 340.230469 193.558594 340.664062 194.425781 340.664062 195.417969 C 340.664062 196.222656 340.355469 196.902344 339.796875 197.460938 C 339.117188 198.082031 338.1875 198.390625 337.011719 198.390625 C 335.714844 198.390625 334.351562 197.894531 332.867188 196.964844 L 332.25 197.894531 C 333.734375 199.007812 335.34375 199.503906 336.828125 199.503906 Z M 357.367188 191.886719 C 357.367188 190.09375 356.75 188.542969 355.449219 187.246094 C 354.152344 185.945312 352.605469 185.324219 350.808594 185.324219 C 349.015625 185.324219 347.46875 185.945312 346.171875 187.246094 C 344.871094 188.542969 344.253906 190.09375 344.253906 191.886719 C 344.253906 193.683594 344.871094 195.230469 346.171875 196.53125 C 347.46875 197.832031 349.015625 198.453125 350.808594 198.453125 C 352.605469 198.453125 354.152344 197.832031 355.449219 196.53125 C 356.6875 195.230469 357.367188 193.683594 357.367188 191.886719 Z M 357.367188 195.789062 C 356.6875 196.902344 355.761719 197.832031 354.648438 198.515625 C 353.472656 199.195312 352.171875 199.503906 350.808594 199.503906 C 348.707031 199.503906 346.914062 198.761719 345.425781 197.277344 C 343.941406 195.789062 343.199219 193.992188 343.199219 191.886719 C 343.199219 189.785156 343.941406 187.988281 345.425781 186.5 C 346.914062 185.015625 348.707031 184.273438 350.808594 184.273438 C 352.914062 184.273438 354.707031 185.015625 356.191406 186.5 C 357.679688 187.988281 358.421875 189.785156 358.421875 191.886719 L 358.421875 198.949219 L 357.308594 198.949219 L 357.308594 195.789062 Z M 360.957031 184.769531 L 362.070312 184.769531 L 362.070312 198.949219 L 360.957031 198.949219 Z M 364.484375 199.007812 L 364.484375 190.773438 C 364.484375 188.976562 365.101562 187.429688 366.402344 186.128906 C 367.703125 184.828125 369.25 184.210938 371.042969 184.210938 C 372.835938 184.210938 374.382812 184.828125 375.683594 186.128906 C 376.980469 187.429688 377.601562 188.976562 377.601562 190.773438 L 377.601562 199.007812 L 376.550781 199.007812 L 376.550781 190.773438 C 376.550781 189.289062 375.992188 187.988281 374.941406 186.933594 C 373.886719 185.882812 372.589844 185.324219 371.105469 185.324219 C 369.621094 185.324219 368.320312 185.882812 367.269531 186.933594 C 366.214844 187.988281 365.660156 189.289062 365.660156 190.773438 L 365.660156 199.007812 Z M 364.484375 199.007812 "/>
<path style=" stroke:none;fill-rule:nonzero;fill:rgb(87.843137%,70.588235%,37.254902%);fill-opacity:1;" d="M 377.601562 174.179688 L 152.882812 174.179688 C 152.511719 174.179688 152.265625 173.871094 152.265625 173.558594 C 152.265625 173.1875 152.574219 172.941406 152.882812 172.941406 L 377.601562 172.941406 C 377.972656 172.941406 378.21875 173.25 378.21875 173.558594 C 378.21875 173.933594 377.910156 174.179688 377.601562 174.179688 Z M 377.601562 174.179688 "/>
<path style=" stroke:none;fill-rule:nonzero;fill:rgb(87.843137%,70.588235%,37.254902%);fill-opacity:1;" d="M 253.425781 21.859375 L 262.890625 31.457031 L 272.171875 22.351562 L 262.707031 12.753906 Z M 253.425781 21.859375 "/>
<path style=" stroke:none;fill-rule:nonzero;fill:rgb(87.843137%,70.588235%,37.254902%);fill-opacity:1;" d="M 280.460938 25.203125 L 273.65625 27.617188 L 276.070312 34.425781 L 282.875 32.011719 Z M 280.460938 25.203125 "/>
<path style=" stroke:none;fill-rule:nonzero;fill:rgb(87.843137%,70.588235%,37.254902%);fill-opacity:1;" d="M 263.757812 44.335938 L 261.839844 51.269531 L 268.769531 53.25 L 270.6875 46.253906 Z M 263.757812 44.335938 "/>
<path style=" stroke:none;fill-rule:nonzero;fill:rgb(87.843137%,70.588235%,37.254902%);fill-opacity:1;" d="M 217.476562 108.976562 C 217.355469 108.976562 217.167969 108.917969 217.042969 108.855469 C 197.246094 92.320312 187.347656 74.304688 187.53125 55.355469 C 187.902344 23.777344 216.734375 0.371094 217.042969 0.125 C 217.292969 -0.0625 217.664062 -0.0625 217.847656 0.1875 C 237.523438 18.515625 247.050781 37.707031 246.125 57.335938 C 244.699219 87.800781 218.097656 108.667969 217.789062 108.917969 C 217.726562 108.976562 217.601562 108.976562 217.476562 108.976562 Z M 217.476562 1.484375 C 213.949219 4.519531 189.203125 26.5 188.832031 55.417969 C 188.644531 73.808594 198.296875 91.394531 217.476562 107.554688 C 220.757812 104.828125 243.585938 85.140625 244.886719 57.277344 C 245.816406 38.203125 236.535156 19.441406 217.476562 1.484375 Z M 194.214844 53.066406 C 193.78125 53.003906 193.535156 52.753906 193.59375 52.382812 C 195.511719 29.351562 212.777344 11.578125 212.898438 11.394531 C 213.148438 11.144531 213.519531 11.144531 213.828125 11.394531 C 214.074219 11.640625 214.074219 12.011719 213.828125 12.320312 C 213.640625 12.507812 196.6875 29.90625 194.832031 52.507812 C 194.832031 52.816406 194.523438 53.066406 194.214844 53.066406 Z M 194.214844 53.066406 "/>
<path style=" stroke:none;fill-rule:nonzero;fill:rgb(87.843137%,70.588235%,37.254902%);fill-opacity:1;" d="M 197.183594 66.441406 C 196.875 66.441406 196.566406 66.191406 196.566406 65.820312 C 195.699219 50.277344 199.472656 40.558594 199.660156 40.125 C 199.78125 39.8125 200.152344 39.628906 200.464844 39.753906 C 200.773438 39.875 200.957031 40.246094 200.835938 40.558594 C 200.773438 40.679688 197 50.527344 197.863281 65.695312 C 197.800781 66.128906 197.554688 66.441406 197.183594 66.441406 Z M 197.183594 66.441406 "/>
<path style=" stroke:none;fill-rule:nonzero;fill:rgb(87.843137%,70.588235%,37.254902%);fill-opacity:1;" d="M 313.5625 108.976562 C 313.5625 108.976562 313.503906 108.976562 313.5625 108.976562 C 302.425781 108.976562 294.320312 105.261719 289.433594 97.894531 C 281.019531 85.261719 283.867188 63.839844 290.425781 48.113281 C 299.953125 25.203125 312.882812 0.558594 313.007812 0.308594 C 313.253906 -0.125 313.933594 -0.125 314.121094 0.308594 C 314.246094 0.558594 327.175781 25.203125 336.703125 48.113281 C 343.261719 63.777344 346.109375 85.261719 337.695312 97.894531 C 332.742188 105.261719 324.640625 108.976562 313.5625 108.976562 Z M 313.5625 2.042969 C 310.964844 7.058594 300.015625 28.542969 291.601562 48.667969 C 285.164062 64.023438 282.378906 85.015625 290.484375 97.214844 C 295.125 104.210938 302.859375 107.738281 313.5625 107.738281 C 313.5625 107.738281 313.5625 107.738281 313.625 107.738281 C 324.269531 107.738281 332 104.210938 336.703125 97.214844 C 344.808594 85.015625 342.023438 64.023438 335.589844 48.667969 C 327.113281 28.542969 316.101562 6.996094 313.5625 2.042969 Z M 313.5625 2.042969 "/>
<path style=" stroke:none;fill-rule:nonzero;fill:rgb(87.843137%,70.588235%,37.254902%);fill-opacity:1;" d="M 335.035156 66.007812 C 335.035156 66.007812 342.707031 94.425781 324.578125 100.0625 C 313.007812 103.652344 308.613281 86.6875 321.234375 85.511719 C 337.136719 83.960938 335.035156 66.007812 335.035156 66.007812 Z M 335.035156 66.007812 "/>
<path style=" stroke:none;fill-rule:nonzero;fill:rgb(43.921569%,43.529412%,43.529412%);fill-opacity:1;" d="M 36.378906 133.125 C 36.566406 133.125 36.75 133.25 36.875 133.375 C 37 133.558594 37.0625 133.683594 37 133.871094 C 37 134.054688 36.9375 134.242188 36.8125 134.367188 C 35.390625 135.542969 34.089844 137.152344 32.914062 139.070312 C 32.296875 140.125 31.863281 141.050781 31.738281 141.917969 C 31.617188 142.664062 31.738281 143.15625 32.109375 143.46875 C 32.296875 143.589844 32.484375 143.714844 32.730469 143.777344 C 33.597656 143.960938 34.832031 143.53125 36.503906 142.476562 C 38.175781 141.425781 39.84375 140.125 41.578125 138.574219 C 43.308594 137.027344 44.792969 135.664062 46.03125 134.488281 C 47.269531 133.3125 47.886719 132.695312 47.949219 132.570312 C 48.136719 132.382812 48.257812 132.320312 48.445312 132.320312 C 48.632812 132.320312 48.816406 132.382812 48.941406 132.507812 C 49.1875 132.753906 49.25 133.003906 49.125 133.3125 C 49.0625 133.375 48.941406 133.683594 48.691406 134.304688 C 48.445312 134.921875 48.199219 135.664062 47.886719 136.59375 C 47.578125 137.523438 47.332031 138.453125 47.085938 139.378906 C 46.898438 140.308594 46.835938 141.113281 46.960938 141.734375 C 47.085938 142.414062 47.394531 142.722656 47.949219 142.785156 C 48.382812 142.847656 48.878906 142.785156 49.496094 142.664062 C 50.117188 142.539062 50.859375 142.292969 51.785156 141.859375 C 53.582031 141.050781 56.675781 139.132812 60.941406 136.160156 C 61.128906 136.039062 61.253906 135.976562 61.5 136.039062 C 61.6875 136.097656 61.871094 136.160156 61.996094 136.347656 C 62.117188 136.53125 62.179688 136.65625 62.117188 136.902344 C 62.058594 137.089844 61.996094 137.277344 61.808594 137.398438 C 57.417969 140.433594 54.261719 142.414062 52.40625 143.21875 C 51.351562 143.714844 50.425781 143.960938 49.746094 144.085938 C 49.0625 144.210938 48.445312 144.273438 47.886719 144.210938 C 46.835938 144.085938 46.21875 143.589844 45.96875 142.664062 C 45.722656 141.734375 45.660156 140.679688 45.910156 139.378906 C 46.09375 138.082031 46.402344 136.902344 46.773438 135.726562 C 45.476562 137.027344 43.867188 138.453125 42.074219 140 C 40.214844 141.546875 38.421875 142.847656 36.691406 143.902344 C 34.957031 144.953125 33.535156 145.324219 32.421875 145.015625 C 32.050781 144.890625 31.679688 144.707031 31.429688 144.457031 C 30.625 143.714844 30.378906 142.722656 30.625 141.546875 C 30.8125 140.496094 31.246094 139.378906 31.925781 138.203125 C 33.226562 136.097656 34.648438 134.367188 36.132812 133.066406 C 36.007812 133.125 36.195312 133.125 36.378906 133.125 Z M 61.128906 136.039062 C 61.316406 135.976562 61.4375 135.976562 61.6875 136.039062 C 61.871094 136.097656 61.996094 136.160156 62.117188 136.347656 C 62.179688 136.53125 62.179688 136.71875 62.117188 136.902344 L 59.398438 144.085938 C 60.882812 142.972656 62.738281 141.671875 64.964844 140.1875 C 67.253906 138.699219 69.417969 137.460938 71.523438 136.410156 C 73.625 135.355469 75.171875 134.984375 76.226562 135.292969 C 77.03125 135.664062 77.523438 136.160156 77.648438 136.84375 C 77.773438 137.523438 77.648438 138.203125 77.339844 139.007812 C 77.089844 139.566406 76.84375 140.125 76.535156 140.742188 C 76.164062 141.484375 75.917969 142.105469 75.730469 142.601562 C 75.542969 143.15625 75.542969 143.46875 75.792969 143.652344 C 76.289062 143.902344 77.277344 143.714844 78.636719 143.097656 C 80 142.476562 81.484375 141.734375 83.09375 140.804688 C 84.703125 139.875 86.0625 139.070312 87.238281 138.328125 C 88.414062 137.585938 89.03125 137.214844 89.03125 137.152344 C 89.21875 137.027344 89.402344 136.964844 89.589844 137.027344 C 89.773438 137.089844 89.898438 137.152344 90.023438 137.335938 C 90.085938 137.523438 90.148438 137.707031 90.085938 137.894531 C 90.085938 138.082031 89.960938 138.203125 89.773438 138.328125 C 89.714844 138.390625 89.09375 138.761719 87.855469 139.566406 C 86.621094 140.308594 85.136719 141.175781 83.402344 142.167969 C 81.671875 143.097656 80 143.902344 78.453125 144.457031 C 76.90625 145.015625 75.730469 145.140625 75.050781 144.828125 C 74.246094 144.335938 73.9375 143.652344 74.183594 142.785156 C 74.371094 141.980469 74.742188 141.050781 75.234375 140.0625 C 75.484375 139.503906 75.792969 138.949219 76.039062 138.453125 C 76.226562 138.019531 76.289062 137.648438 76.289062 137.277344 C 76.289062 136.964844 76.101562 136.71875 75.792969 136.59375 C 74.988281 136.347656 73.6875 136.71875 71.957031 137.585938 C 70.160156 138.515625 68.304688 139.628906 66.265625 140.992188 C 64.222656 142.351562 62.488281 143.589844 60.941406 144.707031 C 59.457031 145.820312 58.59375 146.5 58.34375 146.6875 C 58.097656 146.875 57.851562 146.875 57.601562 146.8125 C 57.417969 146.75 57.292969 146.625 57.167969 146.441406 C 57.105469 146.253906 57.105469 146.066406 57.167969 145.882812 L 60.820312 136.347656 C 60.882812 136.222656 61.003906 136.097656 61.128906 136.039062 Z M 121.207031 132.695312 C 121.390625 132.632812 121.578125 132.570312 121.699219 132.632812 C 121.886719 132.695312 122.011719 132.816406 122.132812 133.003906 C 122.195312 133.1875 122.195312 133.375 122.132812 133.558594 L 109.328125 167.058594 C 111.925781 162.167969 114.957031 156.902344 118.296875 151.207031 C 121.699219 145.511719 124.980469 140.496094 128.199219 136.285156 C 131.414062 132.011719 134.074219 129.597656 136.242188 129.039062 C 137.972656 128.792969 139.085938 129.101562 139.765625 129.96875 C 140.449219 130.898438 140.570312 132.074219 140.136719 133.621094 C 139.765625 134.984375 139.023438 136.46875 137.910156 137.957031 C 136.425781 139.9375 134.570312 141.546875 132.34375 142.785156 C 130.117188 144.023438 127.703125 144.335938 125.105469 143.714844 C 124.917969 143.652344 124.855469 143.589844 124.734375 143.46875 C 121.578125 148.296875 118.546875 153.3125 115.636719 158.515625 C 112.730469 163.777344 110.253906 168.234375 108.273438 172.011719 C 106.296875 175.789062 105.179688 177.894531 104.996094 178.390625 C 104.933594 178.574219 104.808594 178.699219 104.625 178.761719 C 104.4375 178.824219 104.253906 178.824219 104.128906 178.761719 C 103.945312 178.699219 103.820312 178.636719 103.695312 178.453125 C 103.632812 178.265625 103.632812 178.082031 103.695312 177.894531 L 120.835938 133.066406 C 120.898438 132.878906 121.019531 132.753906 121.207031 132.695312 Z M 131.601562 134.054688 C 129.683594 136.222656 127.640625 138.949219 125.414062 142.292969 C 127.703125 142.785156 129.804688 142.539062 131.785156 141.425781 C 133.765625 140.308594 135.375 138.886719 136.671875 137.089844 C 137.664062 135.726562 138.34375 134.425781 138.714844 133.1875 C 138.964844 132.074219 138.964844 131.269531 138.59375 130.773438 C 138.28125 130.339844 137.539062 130.214844 136.425781 130.339844 C 135.128906 130.648438 133.519531 131.886719 131.601562 134.054688 Z M 149.296875 137.585938 C 149.296875 137.523438 149.234375 137.460938 149.046875 137.277344 C 148.863281 137.089844 148.675781 136.902344 148.367188 136.65625 C 148.058594 136.410156 147.75 136.222656 147.316406 136.039062 C 146.945312 135.851562 146.511719 135.789062 146.015625 135.851562 C 145.519531 135.914062 145.027344 136.097656 144.53125 136.46875 C 144.035156 136.84375 143.542969 137.460938 142.984375 138.203125 C 141.5 140.679688 140.632812 142.601562 140.570312 143.902344 C 140.511719 144.273438 140.570312 144.582031 140.695312 144.707031 C 140.757812 144.769531 140.820312 144.769531 140.882812 144.828125 C 141.253906 144.828125 141.746094 144.644531 142.488281 144.210938 C 143.542969 143.53125 144.65625 142.601562 145.894531 141.363281 C 147.128906 140.125 148.304688 138.886719 149.359375 137.585938 C 149.359375 137.648438 149.359375 137.585938 149.296875 137.585938 Z M 144.777344 134.613281 C 145.707031 134.242188 146.574219 134.179688 147.378906 134.488281 C 148.183594 134.738281 148.863281 135.171875 149.359375 135.605469 C 149.914062 136.097656 150.222656 136.410156 150.347656 136.59375 C 150.964844 135.851562 151.707031 134.984375 152.511719 134.054688 C 152.636719 133.871094 152.761719 133.808594 153.007812 133.808594 C 153.195312 133.808594 153.378906 133.808594 153.566406 133.933594 C 153.8125 134.117188 153.875 134.367188 153.8125 134.738281 C 153.75 134.921875 153.6875 135.292969 153.566406 136.039062 C 153.441406 136.71875 153.378906 137.523438 153.441406 138.328125 C 153.441406 139.132812 153.625 139.9375 153.996094 140.621094 C 154.308594 141.300781 154.925781 141.671875 155.667969 141.796875 C 156.71875 141.859375 157.957031 141.671875 159.441406 141.238281 C 160.925781 140.804688 162.351562 140.246094 163.773438 139.566406 C 165.195312 138.886719 166.371094 138.265625 167.363281 137.769531 C 168.351562 137.277344 168.847656 136.964844 168.910156 136.964844 C 169.09375 136.902344 169.21875 136.84375 169.402344 136.902344 C 169.589844 136.964844 169.714844 137.089844 169.835938 137.277344 C 169.960938 137.460938 169.898438 137.585938 169.835938 137.769531 C 169.773438 137.957031 169.773438 138.082031 169.589844 138.203125 C 169.527344 138.265625 169.03125 138.515625 168.042969 139.070312 C 167.050781 139.628906 165.753906 140.246094 164.207031 140.929688 C 162.660156 141.609375 161.113281 142.230469 159.566406 142.664062 C 158.019531 143.15625 156.660156 143.34375 155.484375 143.21875 C 153.9375 142.972656 152.945312 142.167969 152.511719 140.867188 C 152.078125 139.566406 151.957031 138.265625 152.078125 136.902344 C 150.902344 138.265625 149.542969 139.875 147.871094 141.609375 C 146.203125 143.34375 144.71875 144.644531 143.230469 145.574219 C 142.304688 146.191406 141.5 146.441406 140.882812 146.378906 C 140.261719 146.316406 139.765625 146.007812 139.519531 145.574219 C 139.273438 145.140625 139.210938 144.582031 139.210938 143.902344 C 139.335938 142.414062 140.199219 140.246094 141.871094 137.523438 C 142.859375 135.914062 143.851562 134.984375 144.777344 134.613281 Z M 170.886719 132.382812 C 171.074219 132.320312 171.261719 132.382812 171.445312 132.445312 C 171.632812 132.507812 171.753906 132.632812 171.816406 132.816406 C 171.878906 133.003906 171.816406 133.1875 171.753906 133.375 L 171.691406 133.5 C 171.445312 133.992188 170.949219 134.921875 170.394531 136.285156 C 169.773438 137.585938 169.34375 138.949219 169.03125 140.246094 C 168.722656 141.609375 168.910156 142.476562 169.527344 142.972656 C 170.269531 143.28125 171.445312 143.21875 173.179688 142.664062 C 174.910156 142.167969 176.703125 141.425781 178.683594 140.558594 C 180.664062 139.691406 182.398438 138.886719 183.820312 138.140625 C 185.242188 137.398438 185.984375 137.027344 186.109375 137.027344 C 186.292969 136.964844 186.417969 136.964844 186.605469 137.027344 C 186.789062 137.089844 186.914062 137.214844 187.035156 137.335938 C 187.097656 137.523438 186.976562 137.707031 186.914062 137.894531 C 186.851562 138.082031 186.914062 138.203125 186.726562 138.328125 C 186.664062 138.390625 185.863281 138.824219 184.375 139.566406 C 182.890625 140.308594 181.035156 141.113281 178.933594 142.042969 C 176.828125 142.972656 174.847656 143.652344 172.929688 144.148438 C 171.074219 144.644531 169.652344 144.707031 168.785156 144.273438 C 167.796875 143.53125 167.425781 142.414062 167.609375 140.804688 C 167.855469 139.195312 168.289062 137.648438 168.910156 136.097656 C 169.589844 134.550781 170.023438 133.5 170.394531 132.941406 L 170.394531 132.878906 L 170.457031 132.753906 C 170.578125 132.570312 170.703125 132.445312 170.886719 132.382812 Z M 176.582031 122.664062 C 177.199219 123.28125 177.445312 124.023438 177.445312 124.953125 C 177.445312 125.820312 177.136719 126.5625 176.582031 127.183594 C 175.960938 127.800781 175.21875 128.113281 174.292969 128.113281 C 173.488281 128.113281 172.746094 127.800781 172.0625 127.183594 C 171.445312 126.5625 171.199219 125.882812 171.199219 124.953125 C 171.199219 124.085938 171.507812 123.34375 172.0625 122.664062 C 172.683594 122.042969 173.425781 121.796875 174.292969 121.796875 C 175.15625 121.796875 175.898438 122.042969 176.582031 122.664062 Z M 174.292969 122.972656 C 173.796875 122.972656 173.300781 123.15625 172.929688 123.589844 C 172.558594 123.960938 172.375 124.394531 172.375 124.953125 C 172.375 125.449219 172.558594 125.945312 172.929688 126.316406 C 173.300781 126.6875 173.796875 126.933594 174.292969 126.933594 C 174.847656 126.933594 175.34375 126.75 175.714844 126.316406 C 176.085938 125.945312 176.269531 125.449219 176.269531 124.953125 C 176.269531 124.394531 176.085938 123.960938 175.714844 123.589844 C 175.34375 123.15625 174.847656 122.972656 174.292969 122.972656 Z M 186.417969 136.039062 C 186.605469 135.976562 186.726562 135.976562 186.976562 136.039062 C 187.160156 136.097656 187.285156 136.160156 187.410156 136.347656 C 187.46875 136.53125 187.46875 136.71875 187.410156 136.902344 L 184.6875 144.085938 C 186.171875 142.972656 188.027344 141.671875 190.253906 140.1875 C 192.542969 138.699219 194.710938 137.460938 196.8125 136.410156 C 198.917969 135.355469 200.464844 134.984375 201.515625 135.292969 C 202.382812 135.664062 202.8125 136.160156 202.9375 136.84375 C 203.0625 137.523438 202.9375 138.203125 202.628906 139.007812 C 202.382812 139.566406 202.132812 140.125 201.886719 140.742188 C 201.515625 141.484375 201.265625 142.105469 201.082031 142.601562 C 200.894531 143.15625 200.894531 143.46875 201.144531 143.652344 C 201.640625 143.902344 202.628906 143.714844 203.988281 143.097656 C 205.351562 142.476562 206.898438 141.734375 208.445312 140.804688 C 210.054688 139.875 211.414062 139.070312 212.589844 138.328125 C 213.765625 137.585938 214.382812 137.214844 214.382812 137.152344 C 214.570312 137.027344 214.753906 136.964844 214.941406 137.027344 C 215.125 137.089844 215.25 137.152344 215.375 137.335938 C 215.4375 137.523438 215.496094 137.707031 215.4375 137.894531 C 215.4375 138.082031 215.3125 138.203125 215.125 138.328125 C 215.066406 138.390625 214.445312 138.761719 213.207031 139.566406 C 211.972656 140.308594 210.484375 141.175781 208.753906 142.167969 C 207.023438 143.097656 205.351562 143.902344 203.804688 144.457031 C 202.257812 145.015625 201.082031 145.140625 200.402344 144.828125 C 199.597656 144.335938 199.289062 143.652344 199.535156 142.785156 C 199.71875 141.980469 200.09375 141.050781 200.585938 140.0625 C 200.835938 139.503906 201.144531 138.949219 201.390625 138.453125 C 201.578125 138.019531 201.640625 137.648438 201.640625 137.277344 C 201.640625 136.964844 201.453125 136.71875 201.144531 136.59375 C 200.339844 136.347656 199.039062 136.71875 197.308594 137.585938 C 195.511719 138.515625 193.65625 139.628906 191.617188 140.992188 C 189.574219 142.351562 187.839844 143.589844 186.292969 144.707031 C 184.808594 145.820312 183.945312 146.5 183.695312 146.6875 C 183.449219 146.875 183.199219 146.875 182.953125 146.8125 C 182.769531 146.75 182.644531 146.625 182.519531 146.441406 C 182.457031 146.253906 182.457031 146.066406 182.519531 145.882812 L 186.171875 136.347656 C 186.171875 136.222656 186.292969 136.097656 186.417969 136.039062 Z M 242.472656 141.300781 C 242.410156 141.113281 242.472656 140.992188 242.535156 140.804688 C 242.597656 140.621094 242.722656 140.558594 242.90625 140.433594 C 243.03125 139.9375 243.214844 139.503906 243.464844 139.070312 C 244.082031 137.832031 244.886719 136.78125 245.875 135.976562 C 246.867188 135.171875 247.917969 134.550781 248.910156 134.179688 C 249.527344 133.992188 250.082031 133.871094 250.578125 133.871094 C 251.199219 133.871094 251.628906 134.054688 252.003906 134.488281 C 252.375 134.859375 252.433594 135.480469 252.3125 136.222656 C 252.0625 137.152344 251.382812 138.019531 250.332031 138.699219 C 249.28125 139.441406 248.164062 140 246.992188 140.496094 C 245.816406 140.992188 244.824219 141.363281 244.144531 141.546875 C 244.082031 141.980469 244.019531 142.351562 244.082031 142.722656 C 244.144531 143.34375 244.328125 143.777344 244.699219 144.148438 C 245.011719 144.519531 245.566406 144.707031 246.308594 144.828125 C 247.484375 144.953125 249.09375 144.582031 251.257812 143.652344 C 255.28125 141.859375 258.003906 140.308594 259.550781 139.070312 C 261.035156 137.832031 261.777344 137.214844 261.777344 137.152344 C 261.902344 136.964844 262.023438 136.902344 262.210938 136.902344 C 262.394531 136.902344 262.582031 136.902344 262.769531 137.027344 C 262.890625 137.214844 262.828125 137.335938 262.828125 137.523438 C 262.828125 137.707031 262.828125 137.894531 262.707031 138.019531 C 262.769531 138.082031 262.148438 138.824219 260.539062 140.125 C 258.929688 141.425781 256.023438 143.035156 251.816406 144.953125 C 249.464844 146.007812 247.546875 146.441406 246.246094 146.253906 C 245.132812 146.128906 244.269531 145.757812 243.710938 145.203125 C 243.15625 144.582031 242.84375 143.777344 242.78125 142.847656 C 242.722656 142.476562 242.78125 142.042969 242.84375 141.546875 C 242.535156 141.546875 242.472656 141.425781 242.472656 141.300781 Z M 248.351562 138.390625 C 249.710938 137.707031 250.515625 136.84375 250.828125 135.914062 C 250.886719 135.664062 250.886719 135.542969 250.828125 135.480469 C 250.765625 135.417969 250.578125 135.355469 250.394531 135.355469 C 250.082031 135.355469 249.710938 135.417969 249.28125 135.605469 C 248.476562 135.851562 247.609375 136.410156 246.742188 137.089844 C 245.875 137.832031 245.195312 138.699219 244.699219 139.691406 C 244.640625 139.753906 244.640625 139.875 244.578125 139.9375 C 245.753906 139.566406 247.050781 139.070312 248.351562 138.390625 Z M 262.085938 136.039062 C 262.273438 135.976562 262.394531 135.976562 262.644531 136.039062 C 262.828125 136.097656 262.953125 136.160156 263.078125 136.347656 C 263.140625 136.53125 263.140625 136.71875 263.078125 136.902344 L 260.355469 144.085938 C 261.839844 142.972656 263.695312 141.671875 265.921875 140.1875 C 268.210938 138.699219 270.378906 137.460938 272.480469 136.410156 C 274.585938 135.355469 276.132812 134.984375 277.183594 135.292969 C 277.988281 135.664062 278.484375 136.160156 278.605469 136.84375 C 278.730469 137.523438 278.605469 138.203125 278.296875 139.007812 C 278.050781 139.566406 277.800781 140.125 277.554688 140.742188 C 277.183594 141.484375 276.9375 142.105469 276.75 142.601562 C 276.566406 143.15625 276.566406 143.46875 276.8125 143.652344 C 277.308594 143.902344 278.296875 143.714844 279.660156 143.097656 C 281.019531 142.476562 282.566406 141.734375 284.113281 140.804688 C 285.722656 139.875 287.082031 139.070312 288.257812 138.328125 C 289.433594 137.585938 290.054688 137.214844 290.054688 137.152344 C 290.238281 137.027344 290.425781 136.964844 290.609375 137.027344 C 290.796875 137.089844 290.917969 137.152344 291.042969 137.335938 C 291.105469 137.523438 291.167969 137.707031 291.105469 137.894531 C 291.105469 138.082031 290.980469 138.203125 290.796875 138.328125 C 290.734375 138.390625 290.113281 138.761719 288.878906 139.566406 C 287.640625 140.308594 286.15625 141.175781 284.421875 142.167969 C 282.691406 143.097656 281.019531 143.902344 279.472656 144.457031 C 277.925781 145.015625 276.75 145.140625 276.070312 144.828125 C 275.265625 144.335938 274.957031 143.652344 275.203125 142.785156 C 275.390625 141.980469 275.761719 141.050781 276.253906 140.0625 C 276.503906 139.503906 276.8125 138.949219 277.058594 138.453125 C 277.246094 138.019531 277.308594 137.648438 277.308594 137.277344 C 277.308594 136.964844 277.121094 136.71875 276.8125 136.59375 C 276.007812 136.347656 274.707031 136.71875 272.976562 137.585938 C 271.183594 138.515625 269.324219 139.628906 267.285156 140.992188 C 265.242188 142.351562 263.511719 143.589844 261.964844 144.707031 C 260.476562 145.820312 259.613281 146.5 259.363281 146.6875 C 259.117188 146.875 258.871094 146.875 258.621094 146.8125 C 258.4375 146.75 258.3125 146.625 258.1875 146.441406 C 258.128906 146.253906 258.128906 146.066406 258.1875 145.882812 L 261.839844 136.347656 C 261.777344 136.222656 261.902344 136.097656 262.085938 136.039062 Z M 334.167969 137.585938 C 334.167969 137.523438 334.105469 137.460938 333.917969 137.277344 C 333.734375 137.089844 333.546875 136.902344 333.238281 136.65625 C 332.929688 136.410156 332.621094 136.222656 332.1875 136.039062 C 331.816406 135.851562 331.382812 135.789062 330.886719 135.851562 C 330.394531 135.914062 329.898438 136.097656 329.402344 136.46875 C 328.90625 136.84375 328.414062 137.460938 327.855469 138.203125 C 326.371094 140.679688 325.503906 142.601562 325.441406 143.902344 C 325.382812 144.273438 325.441406 144.582031 325.566406 144.707031 C 325.628906 144.769531 325.691406 144.769531 325.753906 144.828125 C 326.125 144.828125 326.617188 144.644531 327.359375 144.210938 C 328.414062 143.53125 329.527344 142.601562 330.765625 141.363281 C 332 140.125 333.175781 138.886719 334.230469 137.585938 C 334.230469 137.648438 334.167969 137.585938 334.167969 137.585938 Z M 329.652344 134.613281 C 330.578125 134.242188 331.507812 134.179688 332.25 134.488281 C 333.054688 134.738281 333.734375 135.171875 334.230469 135.605469 C 334.785156 136.097656 335.09375 136.410156 335.21875 136.59375 C 335.835938 135.851562 336.582031 134.984375 337.382812 134.054688 C 337.507812 133.871094 337.632812 133.808594 337.878906 133.808594 C 338.066406 133.808594 338.25 133.808594 338.4375 133.933594 C 338.683594 134.117188 338.746094 134.367188 338.683594 134.738281 C 338.621094 134.921875 338.558594 135.292969 338.4375 136.039062 C 338.3125 136.71875 338.25 139.378906 338.3125 140.246094 C 338.3125 141.050781 338.5 141.859375 338.871094 142.539062 C 339.179688 143.21875 339.796875 143.589844 340.539062 143.714844 C 341.589844 143.777344 342.828125 143.589844 344.3125 143.15625 C 345.800781 142.722656 347.222656 142.167969 348.644531 141.484375 C 350.066406 140.804688 351.242188 140.1875 352.234375 139.691406 C 353.78125 139.195312 353.71875 137.027344 353.78125 136.964844 C 353.964844 136.902344 354.089844 136.84375 354.273438 136.902344 C 354.460938 136.964844 354.585938 137.089844 354.707031 137.277344 C 354.832031 137.460938 354.832031 137.585938 354.769531 137.769531 C 354.707031 137.957031 354.585938 138.082031 354.460938 138.203125 C 354.398438 138.265625 353.902344 140.308594 352.914062 140.867188 C 351.925781 141.425781 350.625 142.105469 349.078125 142.847656 C 347.53125 143.53125 345.984375 144.148438 344.4375 144.582031 C 342.890625 145.078125 341.53125 145.261719 340.355469 145.140625 C 338.808594 144.890625 337.816406 144.085938 337.382812 142.785156 C 336.953125 141.484375 336.828125 138.265625 336.953125 136.902344 C 335.777344 138.265625 334.414062 139.875 332.742188 141.609375 C 331.074219 143.34375 329.589844 144.644531 328.105469 145.574219 C 327.175781 146.191406 326.371094 146.441406 325.753906 146.378906 C 325.132812 146.316406 324.640625 146.007812 324.390625 145.574219 C 324.144531 145.140625 324.082031 144.582031 324.082031 143.902344 C 324.207031 142.414062 325.070312 140.246094 326.742188 137.523438 C 327.734375 135.914062 328.660156 134.984375 329.652344 134.613281 Z M 354.648438 134.921875 C 354.832031 134.859375 355.019531 134.796875 355.203125 134.859375 C 355.390625 134.921875 355.511719 135.046875 355.574219 135.230469 C 355.699219 135.417969 355.699219 135.605469 355.574219 135.726562 L 352.542969 144.210938 C 354.089844 142.722656 356.070312 141.113281 358.421875 139.257812 C 360.773438 137.460938 363.0625 136.039062 365.289062 135.046875 C 367.515625 134.054688 369.25 134.117188 370.484375 135.109375 C 372.15625 136.964844 374.199219 137.957031 376.671875 138.203125 C 377.910156 138.328125 379.269531 137.769531 381.066406 137.027344 C 381.25 136.964844 381.4375 137.027344 381.621094 137.152344 C 381.808594 137.277344 381.871094 137.398438 381.933594 137.648438 C 381.992188 137.832031 381.746094 137.957031 381.683594 138.140625 C 381.5625 138.328125 381.5625 138.453125 381.375 138.515625 C 378.839844 139.378906 378.589844 139.691406 376.609375 139.628906 C 373.765625 139.378906 371.414062 138.265625 369.496094 136.160156 C 368.566406 135.355469 367.144531 135.417969 365.289062 136.410156 C 363.433594 137.398438 361.390625 138.699219 359.285156 140.371094 C 357.183594 142.042969 355.390625 143.589844 353.84375 145.015625 C 352.355469 146.441406 351.554688 147.183594 351.492188 147.246094 C 351.304688 147.429688 351.058594 147.492188 350.75 147.429688 C 350.5625 147.367188 350.4375 147.246094 350.316406 147.058594 C 350.253906 146.875 350.253906 146.75 350.316406 146.5 L 354.273438 135.230469 C 354.335938 135.109375 354.460938 135.046875 354.648438 134.921875 Z M 388.058594 137.585938 C 388.058594 137.523438 387.996094 137.460938 387.808594 137.277344 C 387.625 137.089844 387.4375 136.902344 387.128906 136.65625 C 386.820312 136.410156 386.511719 136.222656 386.078125 136.039062 C 385.707031 135.851562 385.273438 135.789062 384.777344 135.851562 C 384.28125 135.914062 383.789062 136.097656 383.292969 136.46875 C 382.796875 136.84375 382.304688 137.460938 381.746094 138.203125 C 380.261719 140.679688 379.394531 142.601562 379.332031 143.902344 C 379.269531 144.273438 379.332031 144.582031 379.457031 144.707031 C 379.519531 144.769531 379.582031 144.769531 379.640625 144.828125 C 380.015625 144.828125 380.507812 144.644531 381.25 144.210938 C 382.304688 143.53125 383.417969 142.601562 384.652344 141.363281 C 385.890625 140.125 387.066406 138.886719 388.117188 137.585938 C 388.117188 137.648438 388.058594 137.585938 388.058594 137.585938 Z M 383.480469 134.613281 C 384.40625 134.242188 385.335938 134.179688 386.078125 134.488281 C 386.882812 134.738281 387.5625 135.171875 388.058594 135.605469 C 388.613281 136.097656 388.921875 136.410156 389.046875 136.59375 C 389.664062 135.851562 390.40625 134.984375 391.210938 134.054688 C 391.335938 133.871094 391.460938 133.808594 391.707031 133.808594 C 391.894531 133.808594 392.078125 133.808594 392.265625 133.933594 C 392.511719 134.117188 392.574219 134.367188 392.511719 134.738281 C 392.449219 134.921875 392.386719 135.292969 392.265625 136.039062 C 392.140625 136.71875 392.078125 138.886719 392.140625 139.691406 C 392.140625 140.496094 392.328125 141.300781 392.699219 141.980469 C 393.007812 142.664062 393.625 143.035156 394.367188 143.15625 C 395.417969 143.21875 396.65625 143.035156 398.140625 142.601562 C 399.628906 142.167969 401.050781 141.609375 402.472656 140.929688 C 403.894531 140.246094 405.070312 139.628906 406.0625 139.132812 C 408.101562 138.140625 407.792969 137.027344 407.855469 136.964844 C 408.042969 136.902344 407.917969 136.78125 408.101562 136.84375 C 408.289062 136.902344 408.414062 137.027344 408.535156 137.214844 C 408.660156 137.398438 408.660156 137.523438 408.597656 137.707031 C 408.535156 137.894531 408.414062 138.019531 408.289062 138.140625 C 408.226562 138.203125 407.730469 139.875 406.742188 140.371094 C 405.753906 140.929688 404.453125 141.546875 402.90625 142.230469 C 401.359375 142.910156 399.8125 143.53125 398.265625 143.960938 C 396.71875 144.457031 395.359375 144.644531 394.183594 144.519531 C 392.636719 144.210938 391.644531 143.46875 391.210938 142.167969 C 390.78125 140.867188 390.65625 138.140625 390.78125 136.84375 C 389.605469 138.203125 388.242188 139.8125 386.570312 141.546875 C 384.902344 143.28125 383.417969 144.582031 381.933594 145.511719 C 381.003906 146.128906 380.199219 146.378906 379.582031 146.316406 C 378.960938 146.253906 378.46875 145.945312 378.21875 145.511719 C 377.972656 145.078125 377.910156 144.519531 377.910156 143.839844 C 378.035156 142.351562 378.898438 140.1875 380.570312 137.460938 C 381.5625 135.914062 382.550781 134.984375 383.480469 134.613281 Z M 435.265625 139.257812 C 433.902344 140.433594 432.851562 141.425781 429.945312 142.972656 C 428.273438 143.839844 426.726562 144.457031 425.304688 144.769531 C 423.878906 145.078125 422.828125 145.078125 422.148438 144.644531 C 421.34375 144.148438 421.035156 143.53125 421.28125 142.664062 C 421.46875 141.796875 421.839844 140.929688 422.332031 139.9375 C 422.582031 139.378906 422.890625 138.824219 423.078125 138.265625 C 423.261719 137.832031 423.324219 137.460938 423.324219 137.152344 C 423.324219 136.84375 423.136719 136.59375 422.828125 136.410156 C 422.023438 136.222656 420.726562 136.59375 418.992188 137.460938 C 417.199219 138.390625 415.34375 139.503906 413.300781 140.804688 C 411.257812 142.167969 409.527344 143.34375 407.980469 144.457031 C 406.496094 145.574219 405.628906 146.253906 405.382812 146.441406 C 405.132812 146.625 404.886719 146.625 404.636719 146.5625 C 404.453125 146.5 404.328125 146.378906 404.207031 146.191406 C 404.144531 146.007812 404.144531 145.882812 404.207031 145.632812 L 407.855469 136.097656 C 407.917969 135.914062 408.042969 135.789062 408.226562 135.664062 C 408.414062 135.605469 408.535156 135.605469 408.785156 135.664062 C 408.96875 135.726562 409.09375 135.851562 409.21875 136.039062 C 409.277344 136.222656 409.277344 136.410156 409.21875 136.59375 L 406.496094 143.777344 C 407.980469 142.664062 409.835938 141.363281 412.0625 139.875 C 414.351562 138.390625 416.519531 137.089844 418.621094 136.039062 C 420.726562 134.984375 422.273438 134.613281 423.324219 134.921875 C 424.191406 135.292969 424.683594 135.789062 424.746094 136.410156 C 424.808594 137.027344 424.683594 137.769531 424.375 138.636719 C 424.128906 139.195312 423.878906 139.753906 423.570312 140.371094 C 423.199219 141.050781 422.953125 141.671875 422.765625 142.167969 C 422.582031 142.722656 422.582031 143.035156 422.828125 143.21875 C 423.324219 143.46875 424.191406 143.46875 425.304688 143.15625 C 426.480469 142.847656 427.777344 142.292969 429.203125 141.546875 C 432.109375 140 434.585938 138.019531 436.625 135.542969 C 440.027344 130.648438 441.515625 126.625 441.265625 123.46875 C 440.957031 120.308594 439.472656 117.769531 436.75 115.914062 C 433.84375 113.992188 430.316406 112.570312 426.109375 111.640625 C 421.902344 110.710938 417.753906 110.15625 413.671875 109.84375 C 409.589844 109.597656 406.246094 109.410156 403.710938 109.351562 C 401.730469 109.289062 400.492188 109.226562 400.058594 109.101562 C 399.875 109.039062 399.75 108.976562 399.628906 108.792969 C 399.566406 108.605469 399.566406 108.421875 399.628906 108.234375 C 399.75 107.925781 399.9375 107.738281 400.308594 107.738281 L 457.785156 105.203125 C 463.847656 92.632812 469.046875 82.105469 473.378906 73.621094 C 477.707031 65.140625 479.9375 60.742188 480.121094 60.308594 C 480.246094 60.125 480.367188 60.0625 480.554688 60 C 480.742188 59.9375 480.925781 59.9375 481.050781 60 C 481.234375 60.125 481.359375 60.246094 481.421875 60.433594 C 481.484375 60.621094 481.484375 60.804688 481.421875 60.929688 L 481.359375 60.992188 C 481.050781 61.609375 478.761719 66.007812 474.554688 74.304688 C 470.347656 82.601562 465.273438 92.878906 459.332031 105.140625 L 528.382812 102.042969 C 528.566406 102.042969 528.753906 102.105469 528.9375 102.230469 C 529.125 102.351562 529.1875 102.539062 529.1875 102.785156 C 529.1875 102.972656 529.125 103.15625 529 103.28125 C 528.875 103.40625 528.691406 103.46875 528.503906 103.46875 L 458.714844 106.5625 C 454.320312 115.605469 450.050781 124.707031 445.84375 133.992188 C 441.636719 143.28125 437.863281 151.949219 434.644531 160.0625 C 431.367188 168.113281 429.078125 174.859375 427.65625 180.1875 C 426.292969 185.511719 426.230469 188.730469 427.53125 189.785156 C 427.714844 189.90625 427.777344 190.03125 427.839844 190.277344 C 427.902344 190.464844 427.839844 190.648438 427.714844 190.835938 C 427.59375 191.023438 427.46875 191.082031 427.285156 191.144531 C 427.097656 191.207031 426.914062 191.144531 426.726562 191.023438 C 425.242188 189.84375 425.179688 186.5 426.480469 181.050781 C 427.777344 175.605469 430.066406 168.792969 433.222656 160.679688 C 436.441406 152.507812 440.089844 143.714844 444.296875 134.367188 C 448.503906 124.953125 452.773438 115.726562 457.167969 106.6875 L 415.402344 108.542969 C 419.425781 108.855469 423.449219 109.472656 427.40625 110.464844 C 431.429688 111.394531 434.832031 112.878906 437.617188 114.796875 C 440.648438 116.84375 442.378906 119.628906 442.75 123.15625 C 443.121094 126.625 441.636719 130.773438 437.988281 136.097656 C 438.050781 136.160156 436.253906 138.390625 435.265625 139.257812 Z M 435.265625 139.257812 "/>
</g>
</svg>
